{
	"asset":{
		"generator":"Khronos glTF Blender I/O v5.1.20",
		"version":"2.0"
	},
	"scene":0,
	"scenes":[
		{
			"name":"Scene",
			"nodes":[
				5
			]
		}
	],
	"nodes":[
		{
			"mesh":0,
			"name":"Object_4"
		},
		{
			"mesh":1,
			"name":"Object_5"
		},
		{
			"children":[
				0,
				1
			],
			"name":"Curve.012_0",
			"rotation":[
				0.70710688829422,
				0,
				0,
				0.7071066498756409
			],
			"scale":[
				0.8430910110473633,
				0.8430910110473633,
				0.8430910110473633
			],
			"translation":[
				-0.054951995611190796,
				2.9447073936462402,
				6.33590030670166
			]
		},
		{
			"children":[
				2
			],
			"name":"GLTF_SceneRootNode",
			"rotation":[
				0.70710688829422,
				0,
				0,
				0.7071066498756409
			]
		},
		{
			"children":[
				3
			],
			"name":"root"
		},
		{
			"children":[
				4
			],
			"name":"Sketchfab_model",
			"rotation":[
				-0.70710688829422,
				0,
				0,
				0.7071066498756409
			]
		}
	],
	"materials":[
		{
			"doubleSided":true,
			"name":"glossy_putih",
			"pbrMetallicRoughness":{
				"baseColorFactor":[
					0.800000011920929,
					0.800000011920929,
					0.800000011920929,
					1
				],
				"metallicFactor":0,
				"roughnessFactor":0.20000000298023224
			}
		},
		{
			"doubleSided":true,
			"name":"github",
			"pbrMetallicRoughness":{
				"baseColorFactor":[
					0.009721210226416588,
					0.008568120189011097,
					0.008568130433559418,
					1
				],
				"metallicFactor":0,
				"roughnessFactor":0.20000000298023224
			}
		}
	],
	"meshes":[
		{
			"name":"Object_0",
			"primitives":[
				{
					"attributes":{
						"POSITION":0,
						"NORMAL":1,
						"TEXCOORD_0":2
					},
					"indices":3,
					"material":0
				}
			]
		},
		{
			"name":"Object_1",
			"primitives":[
				{
					"attributes":{
						"POSITION":4,
						"NORMAL":5,
						"TEXCOORD_0":6
					},
					"indices":7,
					"material":1
				}
			]
		}
	],
	"accessors":[
		{
			"bufferView":0,
			"componentType":5126,
			"count":1376,
			"max":[
				0.6376276612281799,
				0.07151520252227783,
				0.4716860353946686
			],
			"min":[
				-0.5223872661590576,
				-0.06464608758687973,
				-0.6596119403839111
			],
			"type":"VEC3"
		},
		{
			"bufferView":1,
			"componentType":5126,
			"count":1376,
			"type":"VEC3"
		},
		{
			"bufferView":2,
			"componentType":5126,
			"count":1376,
			"type":"VEC2"
		},
		{
			"bufferView":3,
			"componentType":5123,
			"count":4020,
			"type":"SCALAR"
		},
		{
			"bufferView":4,
			"componentType":5126,
			"count":16985,
			"max":[
				1.1562925577163696,
				-0.08094173669815063,
				1.1485449075698853
			],
			"min":[
				-1.1430317163467407,
				-0.7116385698318481,
				-1.1507790088653564
			],
			"type":"VEC3"
		},
		{
			"bufferView":5,
			"componentType":5126,
			"count":16985,
			"type":"VEC3"
		},
		{
			"bufferView":6,
			"componentType":5126,
			"count":16985,
			"type":"VEC2"
		},
		{
			"bufferView":7,
			"componentType":5123,
			"count":90624,
			"type":"SCALAR"
		}
	],
	"bufferViews":[
		{
			"buffer":0,
			"byteLength":16512,
			"byteOffset":0,
			"target":34962
		},
		{
			"buffer":0,
			"byteLength":16512,
			"byteOffset":16512,
			"target":34962
		},
		{
			"buffer":0,
			"byteLength":11008,
			"byteOffset":33024,
			"target":34962
		},
		{
			"buffer":0,
			"byteLength":8040,
			"byteOffset":44032,
			"target":34963
		},
		{
			"buffer":0,
			"byteLength":203820,
			"byteOffset":52072,
			"target":34962
		},
		{
			"buffer":0,
			"byteLength":203820,
			"byteOffset":255892,
			"target":34962
		},
		{
			"buffer":0,
			"byteLength":135880,
			"byteOffset":459712,
			"target":34962
		},
		{
			"buffer":0,
			"byteLength":181248,
			"byteOffset":595592,
			"target":34963
		}
	],
	"buffers":[
		{
			"byteLength":776840,
			"uri":"scene.bin"
		}
	]
}
