{
  "accessors": [
    {
      "bufferView": 2,
      "componentType": 5126,
      "count": 16963,
      "max": [
        1.2390331029891968,
        0.22559277713298798,
        1.2392430305480957
      ],
      "min": [
        -1.2411984205245972,
        -0.4547262191772461,
        -1.2409887313842773
      ],
      "type": "VEC3"
    },
    {
      "bufferView": 2,
      "byteOffset": 203556,
      "componentType": 5126,
      "count": 16963,
      "max": [
        1.0,
        1.0,
        1.0
      ],
      "min": [
        -1.0,
        -1.0,
        -1.0
      ],
      "type": "VEC3"
    },
    {
      "bufferView": 1,
      "componentType": 5126,
      "count": 16963,
      "max": [
        1.0000001192092896,
        1.0
      ],
      "min": [
        0.0,
        -1.1920928955078125e-07
      ],
      "type": "VEC2"
    },
    {
      "bufferView": 0,
      "componentType": 5125,
      "count": 90624,
      "type": "SCALAR"
    },
    {
      "bufferView": 2,
      "byteOffset": 407112,
      "componentType": 5126,
      "count": 264,
      "max": [
        0.553168773651123,
        0.36617085337638855,
        0.4976189434528351
      ],
      "min": [
        -0.528188943862915,
        0.2195015251636505,
        -0.5071489214897156
      ],
      "type": "VEC3"
    },
    {
      "bufferView": 2,
      "byteOffset": 410280,
      "componentType": 5126,
      "count": 264,
      "max": [
        0.9930108785629272,
        1.0,
        0.9903164505958557
      ],
      "min": [
        -0.9930160045623779,
        -1.0,
        -0.9903062582015991
      ],
      "type": "VEC3"
    },
    {
      "bufferView": 1,
      "byteOffset": 135704,
      "componentType": 5126,
      "count": 264,
      "max": [
        1.0,
        1.0
      ],
      "min": [
        0.0,
        0.0
      ],
      "type": "VEC2"
    },
    {
      "bufferView": 0,
      "byteOffset": 362496,
      "componentType": 5125,
      "count": 1224,
      "type": "SCALAR"
    }
  ],
  "asset": {
    "extras": {
      "author": "pengedarseni (https://sketchfab.com/pengedarseni)",
      "license": "CC-BY-4.0 (http://creativecommons.org/licenses/by/4.0/)",
      "source": "https://sketchfab.com/3d-models/3d-twitter-x-logo-814e35fbc3e543ac91ca959355f251c0",
      "title": "3D Twitter X Logo"
    },
    "generator": "Sketchfab-15.58.0",
    "version": "2.0"
  },
  "bufferViews": [
    {
      "buffer": 0,
      "byteLength": 367392,
      "name": "floatBufferViews",
      "target": 34963
    },
    {
      "buffer": 0,
      "byteLength": 137816,
      "byteOffset": 367392,
      "byteStride": 8,
      "name": "floatBufferViews",
      "target": 34962
    },
    {
      "buffer": 0,
      "byteLength": 413448,
      "byteOffset": 505208,
      "byteStride": 12,
      "name": "floatBufferViews",
      "target": 34962
    }
  ],
  "buffers": [
    {
      "byteLength": 918656,
      "uri": "scene.bin"
    }
  ],
  "materials": [
    {
      "doubleSided": true,
      "name": "github",
      "pbrMetallicRoughness": {
        "baseColorFactor": [
          0.00972121,
          0.00856812,
          0.00856813,
          1.0
        ],
        "metallicFactor": 0.0,
        "roughnessFactor": 0.2
      }
    },
    {
      "doubleSided": true,
      "name": "glossy_putih",
      "pbrMetallicRoughness": {
        "baseColorFactor": [
          0.8,
          0.8,
          0.8,
          1.0
        ],
        "metallicFactor": 0.0,
        "roughnessFactor": 0.2
      }
    }
  ],
  "meshes": [
    {
      "name": "Object_0",
      "primitives": [
        {
          "attributes": {
            "NORMAL": 1,
            "POSITION": 0,
            "TEXCOORD_0": 2
          },
          "indices": 3,
          "material": 0,
          "mode": 4
        }
      ]
    },
    {
      "name": "Object_1",
      "primitives": [
        {
          "attributes": {
            "NORMAL": 5,
            "POSITION": 4,
            "TEXCOORD_0": 6
          },
          "indices": 7,
          "material": 1,
          "mode": 4
        }
      ]
    }
  ],
  "nodes": [
    {
      "children": [
        1
      ],
      "matrix": [
        1.0,
        0.0,
        0.0,
        0.0,
        0.0,
        2.220446049250313e-16,
        -1.0,
        0.0,
        0.0,
        1.0,
        2.220446049250313e-16,
        0.0,
        0.0,
        0.0,
        0.0,
        1.0
      ],
      "name": "Sketchfab_model"
    },
    {
      "children": [
        2
      ],
      "name": "root"
    },
    {
      "children": [
        3
      ],
      "matrix": [
        1.0,
        0.0,
        0.0,
        0.0,
        0.0,
        2.220446049250313e-16,
        1.0,
        0.0,
        0.0,
        -1.0,
        2.220446049250313e-16,
        0.0,
        0.0,
        0.0,
        0.0,
        1.0
      ],
      "name": "GLTF_SceneRootNode"
    },
    {
      "children": [
        4,
        5
      ],
      "matrix": [
        0.8430913090705872,
        0.0,
        0.0,
        0.0,
        0.0,
        0.0,
        0.8430913090705872,
        0.0,
        0.0,
        -0.8430910706520081,
        0.0,
        0.0,
        0.0,
        3.0,
        6.0,
        1.0
      ],
      "name": "Cylinder.046_0"
    },
    {
      "mesh": 0,
      "name": "Object_4"
    },
    {
      "mesh": 1,
      "name": "Object_5"
    }
  ],
  "scene": 0,
  "scenes": [
    {
      "name": "Sketchfab_Scene",
      "nodes": [
        0
      ]
    }
  ]
}
